<svg width="8" height="10" viewBox="0 0 8 10" fill="none" xmlns="http://www.w3.org/2000/svg">
<path d="M5.35333 2.46291C5.35333 3.22026 4.74467 3.8292 4 3.8292C3.25533 3.8292 2.64667 3.22026 2.64667 2.46291C2.64667 1.70556 3.25533 1.09662 4 1.09662C4.74467 1.09662 5.35333 1.70556 5.35333 2.46291Z" stroke="white" stroke-width="0.793333"/>
<path d="M4 3.78516V8.19256" stroke="white" stroke-width="0.979999"/>
<path d="M6.61212 6.42944C6.61212 6.55907 6.67193 6.6224 6.53376 6.95267C6.39558 7.28295 6.19306 7.58304 5.93774 7.83582C5.68243 8.08861 5.37933 8.28912 5.04575 8.42593C4.71216 8.56273 4.35463 8.63314 3.99356 8.63314C3.63249 8.63314 3.27496 8.56273 2.94138 8.42593C2.60779 8.28912 2.30469 8.08861 2.04938 7.83582C1.79406 7.58304 1.59154 7.28295 1.45336 6.95267C1.38529 6.78995 1.375 6.6887 1.375 6.55907" stroke="white" stroke-width="0.933333"/>
<path d="M1.375 5.10718L2.13277 6.4294H0.617228L1.375 5.10718Z" fill="white" stroke="white" stroke-width="0.466666" stroke-linejoin="round"/>
<path d="M6.625 5.10718L7.38277 6.4294H5.86723L6.625 5.10718Z" fill="white" stroke="white" stroke-width="0.466666" stroke-linejoin="round"/>
</svg>
