<svg width="7" height="7" viewBox="0 0 7 7" fill="none" xmlns="http://www.w3.org/2000/svg">
<path d="M6.25183 5.64282L6.25181 5.64277C6.16446 5.66958 6.0808 5.70727 6.00283 5.75497L6.00037 5.75647L6.00036 5.75645C5.88724 5.82269 5.75853 5.85761 5.62746 5.85761C5.4968 5.85761 5.36849 5.82291 5.25563 5.75707C5.25527 5.75687 5.25491 5.75666 5.25456 5.75645L6.25183 5.64282ZM6.25183 5.64282L6.25533 5.64165C6.27293 5.63577 6.29155 5.63363 6.31001 5.63536C6.32847 5.6371 6.34638 5.64267 6.36258 5.65173C6.37879 5.66078 6.39295 5.67314 6.40415 5.688C6.41535 5.70287 6.42334 5.71993 6.42759 5.73808L6.42756 5.73809L6.42838 5.74126C6.43292 5.7589 6.43383 5.77728 6.43105 5.79528C6.42827 5.81329 6.42186 5.83052 6.41222 5.84595C6.40258 5.86137 6.38991 5.87465 6.375 5.88499C6.36009 5.89532 6.34324 5.90251 6.32549 5.9061L6.32542 5.90579L6.31602 5.90834C6.24528 5.92754 6.17776 5.95708 6.11566 5.99602C5.96367 6.08652 5.79012 6.13429 5.6133 6.13429C5.43594 6.13429 5.26187 6.08623 5.10955 5.99519L5.1096 5.99512L5.10514 5.99266C4.97201 5.91912 4.82244 5.88054 4.67037 5.88054C4.51831 5.88054 4.36873 5.91912 4.23561 5.99266L4.2356 5.99264L4.23361 5.99378C4.0786 6.08254 3.90315 6.12922 3.72461 6.12922C3.54608 6.12922 3.37063 6.08254 3.21562 5.99378L3.21563 5.99377L3.21362 5.99266C3.0805 5.91912 2.93092 5.88054 2.77886 5.88054C2.62679 5.88054 2.47721 5.91912 2.34409 5.99266L2.34407 5.99263L2.34121 5.99429C2.18528 6.08498 2.00819 6.13275 1.82789 6.1328C1.65592 6.13167 1.48725 6.08538 1.33873 5.99854C1.27752 5.96023 1.21107 5.93104 1.14145 5.91188C1.10842 5.90144 1.08065 5.87852 1.06411 5.84786C1.0473 5.81672 1.04347 5.78015 1.05348 5.74617L1.05376 5.74625L1.05583 5.73713C1.06004 5.71866 1.0681 5.7013 1.07947 5.6862C1.09085 5.67109 1.10528 5.65859 1.1218 5.64949C1.13833 5.6404 1.15658 5.63492 1.17535 5.6334C1.19412 5.63189 1.21301 5.63437 1.23076 5.64069L1.23071 5.64083L1.23706 5.64277C1.32441 5.66958 1.40807 5.70727 1.48605 5.75497L1.48603 5.75499L1.48851 5.75645C1.60163 5.82269 1.73034 5.85761 1.86141 5.85761C1.99201 5.85761 2.12025 5.82295 2.23307 5.75717C2.40677 5.65985 2.60248 5.60875 2.80151 5.60875C3.00078 5.60875 3.19672 5.65998 3.37057 5.75753L6.25183 5.64282ZM6.20794 5.49978C6.10859 5.53027 6.01345 5.57313 5.92478 5.62738L6.20794 5.49978ZM6.20794 5.49978C6.24528 5.48731 6.28481 5.48276 6.324 5.48645C6.36319 5.49013 6.40119 5.50195 6.43556 5.52116C6.46993 5.54037 6.49992 5.56655 6.52363 5.59802C6.54733 5.62949 6.56422 5.66556 6.57322 5.70393L6.20794 5.49978ZM1.13086 3.43556C1.09115 3.44478 1.05389 3.46247 1.02164 3.48742C0.989385 3.51238 0.962892 3.54402 0.943971 3.58017C0.924469 3.61646 0.9131 3.65656 0.910655 3.6977C0.90821 3.73883 0.914747 3.78 0.929812 3.81835L1.36871 4.93269C1.3965 5.00263 1.45089 5.05864 1.51993 5.08842C1.58896 5.1182 1.66698 5.1193 1.73682 5.09147C1.80666 5.06365 1.86261 5.00918 1.89235 4.94005C1.92208 4.87093 1.92318 4.7928 1.89539 4.72286L1.63411 4.06408L1.61062 4.06929L1.57825 3.92326L1.71729 3.86812L1.72616 3.89047L3.30887 3.53961V3.50645H3.45844L3.49082 3.65248L3.45844 3.65965V4.8533C3.45844 4.9285 3.48828 5.00062 3.54138 5.05379C3.59448 5.10697 3.66651 5.13684 3.7416 5.13684C3.8167 5.13684 3.88873 5.10697 3.94183 5.05379C3.99493 5.00062 4.02477 4.9285 4.02477 4.8533V3.65965L3.99239 3.65248L4.02477 3.50645H4.17434V3.53961L5.75705 3.89047L5.76592 3.86812L5.90496 3.92326L5.87258 4.06929L5.8491 4.06408L5.58782 4.72286C5.57402 4.75749 5.56718 4.7945 5.56769 4.83177C5.5682 4.86905 5.57604 4.90586 5.59077 4.9401C5.60549 4.97433 5.62682 5.00533 5.65352 5.0313L1.13086 3.43556ZM1.50772 4.87746L1.06903 3.76366C1.0619 3.74552 1.05881 3.72604 1.05996 3.70657C1.06112 3.68711 1.0665 3.66813 1.07572 3.65098L1.07573 3.65098L1.07649 3.64953C1.08544 3.63244 1.09795 3.6175 1.11317 3.60572C1.12812 3.59415 1.14534 3.5859 1.16368 3.5815L2.07402 3.38616L2.19221 3.3608V3.23992V2.01783C2.19221 1.98223 2.20633 1.94813 2.23141 1.92302C2.25648 1.89792 2.29043 1.88386 2.3258 1.88386H2.89212H3.04169V1.73428V0.883644C3.04169 0.848047 3.05582 0.813948 3.08089 0.788838C3.10596 0.763736 3.13992 0.74967 3.17528 0.74967H4.30793C4.34329 0.74967 4.37725 0.763736 4.40232 0.788838C4.42739 0.813948 4.44152 0.848047 4.44152 0.883644V1.73428V1.88386H4.59109H5.15741C5.19278 1.88386 5.22673 1.89792 5.2518 1.92302C5.27688 1.94813 5.291 1.98223 5.291 2.01783V3.23992V3.36007L5.40832 3.38597L6.31917 3.58708C6.33764 3.59146 6.35499 3.59974 6.37004 3.61139C6.38526 3.62317 6.39777 3.63811 6.40672 3.6552L6.40671 3.6552L6.40749 3.65665C6.41671 3.67381 6.42209 3.69278 6.42324 3.71224C6.4244 3.73164 6.42133 3.75106 6.41425 3.76915C6.41423 3.76921 6.41421 3.76927 6.41418 3.76933L5.97551 4.87741C5.96559 4.90236 5.94842 4.92372 5.92628 4.93875C5.90413 4.95377 5.87801 4.96178 5.8513 4.96175L5.85079 4.96175C5.83397 4.96179 5.81728 4.95864 5.80162 4.95247C5.78531 4.94599 5.77042 4.93635 5.75782 4.92409C5.74521 4.91182 5.73513 4.89718 5.72817 4.88099C5.7212 4.8648 5.71749 4.84738 5.71725 4.82974C5.71701 4.8121 5.72025 4.79459 5.72677 4.77822L5.72685 4.77801L6.04399 3.97841L6.10871 3.81523L5.93733 3.77724L4.05714 3.36042L3.87519 3.32009V3.50645V4.8533C3.87519 4.88889 3.86107 4.92299 3.83599 4.9481C3.81093 4.9732 3.77697 4.98727 3.7416 4.98727C3.70624 4.98727 3.67228 4.9732 3.64722 4.9481C3.62214 4.92299 3.60802 4.88889 3.60802 4.8533V3.50645V3.32009L3.42607 3.36042L1.54588 3.77724L1.3745 3.81523L1.43922 3.97841L1.75636 4.77801L1.75639 4.77809C1.76955 4.81121 1.76903 4.84822 1.75495 4.88095C1.74087 4.91367 1.71441 4.9394 1.68147 4.95252C1.64852 4.96565 1.61173 4.96513 1.57917 4.95108C1.54665 4.93706 1.52096 4.91066 1.50778 4.87763C1.50776 4.87757 1.50774 4.87752 1.50772 4.87746ZM3.45844 1.01762H3.30887V1.16719V1.73428V1.88386H3.45844H4.02477H4.17434V1.73428V1.16719V1.01762H4.02477H3.45844ZM2.60896 2.1518H2.45939V2.30138V3.11232V3.2998L2.64218 3.25816L3.69613 3.01804H3.78708L4.84102 3.25816L5.02382 3.2998V3.11232V2.30138V2.1518H4.87425H2.60896Z" stroke="#1F335E" stroke-opacity="0.66" stroke-width="0.299145"/>
</svg>
